<svg width="242" height="127" viewBox="0 0 242 127" fill="none" xmlns="http://www.w3.org/2000/svg">
<path d="M123.42 58.9801V53.9091H147.312V58.9801H138.406V83H132.327V58.9801H123.42ZM176.652 68.4545C176.652 71.6269 176.051 74.3258 174.848 76.5511C173.655 78.7765 172.026 80.4763 169.962 81.6506C167.907 82.8153 165.596 83.3977 163.03 83.3977C160.445 83.3977 158.125 82.8106 156.07 81.6364C154.015 80.4621 152.391 78.7623 151.197 76.5369C150.004 74.3116 149.408 71.6174 149.408 68.4545C149.408 65.2822 150.004 62.5833 151.197 60.358C152.391 58.1326 154.015 56.4375 156.07 55.2727C158.125 54.0985 160.445 53.5114 163.03 53.5114C165.596 53.5114 167.907 54.0985 169.962 55.2727C172.026 56.4375 173.655 58.1326 174.848 60.358C176.051 62.5833 176.652 65.2822 176.652 68.4545ZM170.416 68.4545C170.416 66.3996 170.108 64.6667 169.493 63.2557C168.887 61.8447 168.03 60.7746 166.922 60.0455C165.814 59.3163 164.517 58.9517 163.03 58.9517C161.543 58.9517 160.246 59.3163 159.138 60.0455C158.03 60.7746 157.168 61.8447 156.553 63.2557C155.946 64.6667 155.643 66.3996 155.643 68.4545C155.643 70.5095 155.946 72.2424 156.553 73.6534C157.168 75.0644 158.03 76.1345 159.138 76.8636C160.246 77.5928 161.543 77.9574 163.03 77.9574C164.517 77.9574 165.814 77.5928 166.922 76.8636C168.03 76.1345 168.887 75.0644 169.493 73.6534C170.108 72.2424 170.416 70.5095 170.416 68.4545ZM181.208 83V53.9091H192.685C194.882 53.9091 196.757 54.3021 198.31 55.0881C199.873 55.8646 201.061 56.9678 201.876 58.3977C202.7 59.8182 203.112 61.4896 203.112 63.4119C203.112 65.3437 202.695 67.0057 201.862 68.3977C201.028 69.7803 199.821 70.8409 198.239 71.5795C196.667 72.3182 194.764 72.6875 192.529 72.6875H184.844V67.7443H191.535C192.709 67.7443 193.684 67.5833 194.461 67.2614C195.237 66.9394 195.815 66.4564 196.194 65.8125C196.582 65.1686 196.776 64.3684 196.776 63.4119C196.776 62.446 196.582 61.6316 196.194 60.9688C195.815 60.3059 195.233 59.804 194.447 59.4631C193.67 59.1127 192.69 58.9375 191.506 58.9375H187.359V83H181.208ZM196.918 69.7614L204.148 83H197.359L190.285 69.7614H196.918ZM207.458 53.9091H215.043L223.055 73.4545H223.396L231.407 53.9091H238.992V83H233.026V64.0653H232.785L225.256 82.858H221.194L213.665 63.9943H213.424V83H207.458V53.9091Z" fill="#2E2D29"/>
<circle cx="63.2926" cy="76.6945" r="3.32116" transform="rotate(38 63.2926 76.6945)" fill="#D9D9D9"/>
<circle cx="53.756" cy="90.4048" r="3.32116" transform="rotate(38 53.756 90.4048)" fill="#D9D9D9"/>
<rect x="70.4082" y="78.9755" width="36.9018" height="3.69018" rx="1.84509" transform="rotate(38 70.4082 78.9755)" fill="#D9D9D9"/>
<rect x="71.656" y="90.2531" width="8.74313" height="3.69018" rx="1.84509" transform="rotate(38 71.656 90.2531)" fill="#D9D9D9"/>
<rect x="81.6497" y="98.0609" width="15.6051" height="3.69018" rx="1.84509" transform="rotate(38 81.6497 98.0609)" fill="#D9D9D9"/>
<rect x="59.6689" y="102.985" width="15.5793" height="3.69018" rx="1.84509" transform="rotate(38 59.6689 102.985)" fill="#D9D9D9"/>
<rect x="74.5168" y="114.586" width="12.9962" height="3.69018" rx="1.84509" transform="rotate(38 74.5168 114.586)" fill="#D9D9D9"/>
<rect x="60.4165" y="93.2675" width="36.9018" height="3.69018" rx="1.84509" transform="rotate(38 60.4165 93.2675)" fill="#D9D9D9"/>
<path d="M100.286 19.9823L38.3156 96.5092C31.1085 105.409 18.2438 91.5836 26.7288 81.1056C8.03525 69.3757 23.6382 28.8911 49.5204 30.4672C49.2862 15.5821 76.2805 8.78812 84.4101 16.2403C88.475 9.12686 107.444 12.1755 100.286 19.9823Z" fill="#D9D9D9"/>
<path fill-rule="evenodd" clip-rule="evenodd" d="M106.373 64.1543C105.132 64.1543 104.191 63.0358 104.402 61.813L111.584 20.349C111.943 18.2784 109.274 17.1266 108.014 18.8077L70.4036 68.9543C69.4148 70.2728 70.3555 72.1543 72.0036 72.1543H90.6341C91.8751 72.1543 92.8166 73.2728 92.6048 74.4957L85.423 115.96C85.0644 118.03 87.7328 119.182 88.9936 117.501L126.604 67.3543C127.592 66.0359 126.652 64.1543 125.004 64.1543H106.373Z" fill="#AE2628"/>
</svg>
